<?xml version="1.0" standalone="no"?>
<!DOCTYPE svg PUBLIC "-//W3C//DTD SVG 20010904//EN"
 "http://www.w3.org/TR/2001/REC-SVG-20010904/DTD/svg10.dtd">
<svg version="1.0" xmlns="http://www.w3.org/2000/svg"
 width="260.000000pt" height="260.000000pt" viewBox="0 0 260.000000 260.000000"
 preserveAspectRatio="xMidYMid meet">
<metadata>
Created by potrace 1.14, written by Peter Selinger 2001-2017
</metadata>
<g transform="translate(0.000000,260.000000) scale(0.100000,-0.100000)"
fill="#000000" stroke="none">
<path d="M936 2262 c-30 -31 -64 -68 -76 -81 -19 -23 -189 -207 -235 -255 -17
-18 -211 -229 -240 -262 -5 -6 -62 -67 -126 -135 -63 -68 -137 -148 -164 -177
l-48 -53 34 -36 c42 -44 58 -61 134 -144 33 -36 110 -119 170 -184 61 -66 139
-151 175 -190 35 -38 69 -75 75 -81 9 -9 52 -57 229 -248 15 -17 50 -54 76
-82 l48 -51 272 0 271 -1 -23 27 c-12 14 -50 55 -83 91 -33 36 -82 90 -109
120 -28 30 -77 84 -110 120 -59 63 -208 226 -311 340 -27 30 -59 64 -70 75
-11 12 -66 71 -122 131 l-102 111 25 29 c26 30 163 181 199 218 11 12 90 98
175 191 85 94 171 188 191 210 21 22 50 54 65 70 15 17 54 59 87 95 71 78 134
146 165 181 l22 25 -269 2 -270 1 -55 -57z"/>
<path d="M1958 2310 c-3 -7 -113 -128 -288 -315 -41 -44 -79 -85 -85 -91 -17
-19 -218 -236 -248 -269 -16 -16 -68 -72 -115 -124 -48 -52 -111 -119 -139
-150 -29 -30 -53 -58 -53 -61 0 -3 24 -30 53 -61 28 -31 91 -99 138 -150 48
-52 104 -113 125 -135 22 -23 82 -88 134 -144 52 -57 102 -110 111 -119 8 -9
97 -104 197 -212 l181 -196 290 0 c160 0 291 1 291 3 0 2 -12 16 -27 32 -16
16 -71 75 -123 132 -126 138 -221 242 -289 315 -31 33 -101 109 -156 169 -55
61 -107 117 -115 126 -82 87 -206 224 -212 233 -3 7 23 43 60 83 76 80 239
258 263 285 16 18 190 208 354 385 5 6 53 58 105 115 52 57 103 111 113 121 9
10 17 22 17 27 0 10 -578 12 -582 1z m426 -78 c-10 -10 -55 -58 -99 -107 -44
-48 -91 -100 -105 -115 -14 -15 -68 -74 -120 -131 -52 -56 -106 -115 -120
-130 -14 -15 -57 -62 -96 -105 -39 -44 -89 -98 -110 -120 -22 -23 -57 -61 -79
-85 -22 -24 -59 -65 -84 -91 l-43 -48 93 -102 c52 -56 103 -112 114 -124 11
-11 57 -61 102 -111 46 -49 95 -103 110 -119 47 -50 208 -226 259 -283 27 -30
81 -88 121 -130 l71 -76 -196 -3 -197 -2 -55 59 c-30 32 -102 109 -160 171
-58 62 -113 122 -123 134 -18 21 -193 210 -232 250 -11 12 -69 75 -130 141
-60 66 -125 136 -142 155 -18 19 -33 37 -33 40 1 6 48 59 129 145 31 33 106
114 166 179 61 66 121 131 135 146 23 24 180 194 240 260 14 15 65 70 114 123
l90 97 200 0 c194 0 199 -1 180 -18z"/>
</g>
</svg>
